<svg width="32" height="32" viewBox="0 0 32 32" fill="none" xmlns="http://www.w3.org/2000/svg">
<path d="M15.9994 1.28003C7.88291 1.28003 1.27939 7.88355 1.27939 16C1.27939 18.5344 1.93411 21.0266 3.17571 23.2256L1.30307 29.9072C1.24163 30.1267 1.30115 30.3623 1.45987 30.5255C1.58211 30.6515 1.74851 30.72 1.91939 30.72C1.97059 30.72 2.02243 30.7136 2.07299 30.7015L9.04643 28.9741C11.1757 30.1171 13.5738 30.72 15.9994 30.72C24.1159 30.72 30.7194 24.1165 30.7194 16C30.7194 7.88355 24.1159 1.28003 15.9994 1.28003ZM23.4042 21.1943C23.0893 22.066 21.5789 22.8615 20.8532 22.9683C20.2016 23.0637 19.3773 23.1047 18.4724 22.8205C17.9239 22.6477 17.2199 22.4186 16.3181 22.0339C12.5274 20.4173 10.0519 16.6483 9.86243 16.3994C9.67363 16.1504 8.31939 14.3763 8.31939 12.5402C8.31939 10.704 9.29539 9.80099 9.64227 9.42723C9.98915 9.05347 10.3981 8.96003 10.6503 8.96003C10.9024 8.96003 11.154 8.96323 11.3748 8.97347C11.6071 8.98499 11.9188 8.88579 12.2253 9.61411C12.5402 10.3616 13.296 12.1978 13.3895 12.3853C13.4842 12.5722 13.5469 12.7904 13.4215 13.0394C13.296 13.2883 13.2333 13.4439 13.0439 13.6621C12.8544 13.8803 12.6471 14.1485 12.4768 14.3162C12.2874 14.5024 12.0909 14.704 12.3111 15.0778C12.5312 15.4515 13.2896 16.6733 14.4135 17.6627C15.8567 18.9338 17.0746 19.328 17.4522 19.5149C17.8298 19.7018 18.0506 19.6704 18.2708 19.4215C18.4909 19.1719 19.2154 18.3315 19.4669 17.9584C19.7184 17.5853 19.9706 17.6467 20.3175 17.7715C20.6644 17.8957 22.5223 18.7981 22.8999 18.985C23.2775 19.1719 23.5296 19.2653 23.6244 19.4208C23.7191 19.5757 23.7191 20.3232 23.4042 21.1943Z" fill="url(#paint0_linear_2002_170)"/>
<defs>
<linearGradient id="paint0_linear_2002_170" x1="15.9993" y1="1.28003" x2="15.9993" y2="30.72" gradientUnits="userSpaceOnUse">
<stop stop-color="#AE7D20"/>
<stop offset="1" stop-color="#CEB27B"/>
</linearGradient>
</defs>
</svg>
