<svg width="32" height="32" viewBox="0 0 32 32" fill="none" xmlns="http://www.w3.org/2000/svg">
<path fill-rule="evenodd" clip-rule="evenodd" d="M16 24C20.4183 24 24 20.4183 24 16C24 11.5817 20.4183 8 16 8C11.5817 8 8 11.5817 8 16C8 20.4183 11.5817 24 16 24ZM16 21.3333C18.9455 21.3333 21.3333 18.9455 21.3333 16C21.3333 13.0545 18.9455 10.6667 16 10.6667C13.0545 10.6667 10.6667 13.0545 10.6667 16C10.6667 18.9455 13.0545 21.3333 16 21.3333Z" fill="url(#paint0_linear_2002_176)"/>
<path d="M23.9993 6.66663C23.2629 6.66663 22.666 7.26359 22.666 7.99996C22.666 8.73633 23.2629 9.33329 23.9993 9.33329C24.7357 9.33329 25.3327 8.73633 25.3327 7.99996C25.3327 7.26359 24.7357 6.66663 23.9993 6.66663Z" fill="url(#paint1_linear_2002_176)"/>
<path fill-rule="evenodd" clip-rule="evenodd" d="M2.20593 5.70145C1.33398 7.41275 1.33398 9.65296 1.33398 14.1334V17.8667C1.33398 22.3471 1.33398 24.5874 2.20593 26.2986C2.97292 27.8039 4.19676 29.0278 5.70206 29.7947C7.41336 30.6667 9.65357 30.6667 14.134 30.6667H17.8673C22.3477 30.6667 24.588 30.6667 26.2992 29.7947C27.8045 29.0278 29.0284 27.8039 29.7953 26.2986C30.6673 24.5874 30.6673 22.3471 30.6673 17.8667V14.1334C30.6673 9.65296 30.6673 7.41275 29.7953 5.70145C29.0284 4.19615 27.8045 2.97231 26.2992 2.20532C24.588 1.33337 22.3477 1.33337 17.8673 1.33337H14.134C9.65357 1.33337 7.41336 1.33337 5.70206 2.20532C4.19676 2.97231 2.97292 4.19615 2.20593 5.70145ZM17.8673 4.00004H14.134C11.8498 4.00004 10.297 4.00212 9.09676 4.10017C7.92764 4.19569 7.32977 4.36883 6.9127 4.58133C5.90917 5.09267 5.09328 5.90856 4.58194 6.91209C4.36944 7.32916 4.1963 7.92703 4.10078 9.09615C4.00273 10.2964 4.00065 11.8492 4.00065 14.1334V17.8667C4.00065 20.151 4.00273 21.7036 4.10078 22.9039C4.1963 24.0731 4.36944 24.671 4.58194 25.088C5.09328 26.0915 5.90917 26.9074 6.9127 27.4187C7.32977 27.6312 7.92764 27.8044 9.09676 27.8999C10.297 27.9979 11.8498 28 14.134 28H17.8673C20.1516 28 21.7043 27.9979 22.9045 27.8999C24.0737 27.8044 24.6716 27.6312 25.0886 27.4187C26.0921 26.9074 26.908 26.0915 27.4193 25.088C27.6318 24.671 27.805 24.0731 27.9005 22.9039C27.9985 21.7036 28.0006 20.151 28.0006 17.8667V14.1334C28.0006 11.8492 27.9985 10.2964 27.9005 9.09615C27.805 7.92703 27.6318 7.32916 27.4193 6.91209C26.908 5.90856 26.0921 5.09267 25.0886 4.58133C24.6716 4.36883 24.0737 4.19569 22.9045 4.10017C21.7043 4.00212 20.1516 4.00004 17.8673 4.00004Z" fill="url(#paint2_linear_2002_176)"/>
<defs>
<linearGradient id="paint0_linear_2002_176" x1="16" y1="8" x2="16" y2="24" gradientUnits="userSpaceOnUse">
<stop stop-color="#AE7D20"/>
<stop offset="1" stop-color="#CEB27B"/>
</linearGradient>
<linearGradient id="paint1_linear_2002_176" x1="23.9993" y1="6.66663" x2="23.9993" y2="9.33329" gradientUnits="userSpaceOnUse">
<stop stop-color="#AE7D20"/>
<stop offset="1" stop-color="#CEB27B"/>
</linearGradient>
<linearGradient id="paint2_linear_2002_176" x1="16.0007" y1="1.33337" x2="16.0007" y2="30.6667" gradientUnits="userSpaceOnUse">
<stop stop-color="#AE7D20"/>
<stop offset="1" stop-color="#CEB27B"/>
</linearGradient>
</defs>
</svg>
