<svg width="24" height="24" viewBox="0 0 24 24" fill="none" xmlns="http://www.w3.org/2000/svg">
<path d="M12 11.6C12.55 11.6 13.0208 11.4041 13.4125 11.0125C13.8042 10.6208 14 10.15 14 9.59998C14 9.04998 13.8042 8.57914 13.4125 8.18748C13.0208 7.79581 12.55 7.59998 12 7.59998C11.45 7.59998 10.9792 7.79581 10.5875 8.18748C10.1958 8.57914 10 9.04998 10 9.59998C10 10.15 10.1958 10.6208 10.5875 11.0125C10.9792 11.4041 11.45 11.6 12 11.6ZM12 18.95C14.0333 17.0833 15.5417 15.3875 16.525 13.8625C17.5083 12.3375 18 10.9833 18 9.79998C18 7.98331 17.4208 6.49581 16.2625 5.33748C15.1042 4.17914 13.6833 3.59998 12 3.59998C10.3167 3.59998 8.89583 4.17914 7.7375 5.33748C6.57917 6.49581 6 7.98331 6 9.79998C6 10.9833 6.49167 12.3375 7.475 13.8625C8.45833 15.3875 9.96667 17.0833 12 18.95ZM12 21.6C9.31667 19.3166 7.3125 17.1958 5.9875 15.2375C4.6625 13.2791 4 11.4666 4 9.79998C4 7.29998 4.80417 5.30831 6.4125 3.82498C8.02083 2.34164 9.88333 1.59998 12 1.59998C14.1167 1.59998 15.9792 2.34164 17.5875 3.82498C19.1958 5.30831 20 7.29998 20 9.79998C20 11.4666 19.3375 13.2791 18.0125 15.2375C16.6875 17.1958 14.6833 19.3166 12 21.6Z" fill="url(#paint0_linear_2002_93)"/>
<defs>
<linearGradient id="paint0_linear_2002_93" x1="12" y1="1.59998" x2="12" y2="21.6" gradientUnits="userSpaceOnUse">
<stop stop-color="#0E3764"/>
<stop offset="1" stop-color="#7698BC"/>
</linearGradient>
</defs>
</svg>
